#!OML:ASF F:\VICON\USERDATA\INSTALL\rory3\rory3.ASF
:FULLY-SPECIFIED
:DEGREES
186
root -1.80633 18.388 1.06456 -163.019 10.3348 -171.742
lowerback -7.76176 2.95831 3.35189
upperback -11.5981 5.65998 1.1515
thorax -7.75943 3.32325 -0.686469
lowerneck -7.65661 2.53672 -1.2386
upperneck 33.9928 -1.56883 4.714
head 12.5573 -1.78368 1.49944
rclavicle 3.97569e-016 1.51076e-014
rhumerus -25.6172 45.4627 -22.9185
rradius 43.2851
rwrist 17.733
rhand -30.4906 54.0623
rfingers 7.12502
rthumb -3.79125 24.1163
lclavicle 3.97569e-016 1.51076e-014
lhumerus -7.67122 -41.5913 3.10163
lradius 43.7894
lwrist -43.6916
lhand -29.4415 0.672973
lfingers 7.12502
lthumb -2.77809 30.6346
rfemur -55.5708 -69.644 18.0915
rtibia 113.318
rfoot 12.9456 -55.0656
rtoes 60.386
lfemur -37.0906 -4.15189 -15.7991
ltibia 38.6939
lfoot -40.433 6.23949
ltoes 53.207
187
root -1.83603 18.4204 0.922057 -162.797 9.84105 -171.309
lowerback -8.20943 2.8716 4.05695
upperback -11.5922 5.54126 1.26148
thorax -7.46665 3.23709 -0.923452
lowerneck -7.46517 2.51663 -1.05244
upperneck 33.6717 -1.46849 4.45821
head 12.3762 -1.72634 1.38262
rclavicle 4.62174e-014 4.8901e-014
rhumerus -25.4632 42.8179 -21.6866
rradius 40.8583
rwrist 18.0617
rhand -29.4564 54.1838
rfingers 7.12502
rthumb -2.79245 24.2223
lclavicle 4.62174e-014 4.8901e-014
lhumerus -8.5934 -39.5444 3.02365
lradius 42.2017
lwrist -44.0896
lhand -29.5229 1.02249
lfingers 7.12502
lthumb -2.8567 30.9831
rfemur -57.1406 -72.1732 18.5082
rtibia 115.558
rfoot 14.1902 -55.5404
rtoes 60.4848
lfemur -36.766 -4.04433 -15.5882
ltibia 38.4382
lfoot -39.9971 8.3834
ltoes 52.7444
188
root -1.85805 18.4473 0.789869 -162.421 9.5825 -171.095
lowerback -8.50531 2.75972 4.34314
upperback -11.9028 5.49165 1.35405
thorax -7.64621 3.23323 -0.98374
lowerneck -6.82295 2.47846 -0.940847
upperneck 33.3867 -1.48408 4.25035
head 12.1225 -1.7631 1.27828
rclavicle -1.96797e-014 -1.43125e-014
rhumerus -25.5059 40.3565 -20.4311
rradius 38.262
rwrist 19.2806
rhand -28.9171 54.3091
rfingers 7.12502
rthumb -2.27169 24.3415
lclavicle -1.96797e-014 -1.43125e-014
lhumerus -9.44342 -37.8774 2.88528
lradius 40.6149
lwrist -44.2517
lhand -33.9118 -0.656066
lfingers 7.12502
lthumb -7.09447 29.205
rfemur -60.2979 -74.3362 20.1455
rtibia 117.807
rfoot 16.7349 -55.7766
rtoes 60.156
lfemur -36.62 -4.13709 -15.5114
ltibia 38.1682
lfoot -40.1314 8.70805
ltoes 52.69
189
root -1.87588 18.468 0.667501 -162.102 9.47858 -171.175
lowerback -8.64428 2.69038 4.25331
upperback -12.2033 5.49784 1.35225
thorax -7.91674 3.2726 -0.947283
lowerneck -6.45172 2.38228 -0.927758
upperneck 33.2454 -1.61066 4.15348
head 11.9912 -1.84393 1.22227
rclavicle 4.9895e-014 2.50469e-014
rhumerus -25.7069 38.0317 -19.0845
rradius 35.6638
rwrist 21.0659
rhand -29.8193 54.8288
rfingers 7.12502
rthumb -3.14299 24.8723
lclavicle 4.9895e-014 2.50469e-014
lhumerus -9.8527 -36.1004 2.63469
lradius 38.8158
lwrist -44.1621
lhand -34.1417 -1.26126
lfingers 7.12502
lthumb -7.31634 28.5922
rfemur -64.6917 -76.4436 22.6425
rtibia 120.048
rfoot 21.5063 -55.4432
rtoes 59.6643
lfemur -36.4632 -4.07001 -15.83
ltibia 37.848
lfoot -40.2361 8.84071
ltoes 52.7237
190
root -1.8895 18.4865 0.553849 -161.916 9.48198 -171.294
lowerback -8.64086 2.66762 4.03517
upperback -12.3358 5.51865 1.36696
thorax -8.08571 3.31242 -0.822223
lowerneck -6.58748 2.31657 -0.931877
upperneck 33.2055 -1.64452 4.07906
head 12.0035 -1.85411 1.19274
rclavicle 1.22253e-014 -6.75868e-015
rhumerus -25.7888 35.8166 -17.7502
rradius 34.0445
rwrist 20.9469
rhand -28.9886 53.7525
rfingers 7.12502
rthumb -2.34068 23.7856
lclavicle 1.22253e-014 -6.75868e-015
lhumerus -10.1915 -33.7944 2.3752
lradius 37.036
lwrist -44.3148
lhand -34.3979 -1.73908
lfingers 7.12502
lthumb -7.5636 28.1057
rfemur -69.7115 -78.373 25.8445
rtibia 122.187
rfoot 24.3114 -55.511
rtoes 59.9404
lfemur -36.208 -4.05969 -16.1585
ltibia 37.5133
lfoot -40.3055 9.70993
ltoes 52.4823
191
root -1.91373 18.4985 0.412581 -161.811 8.91487 -171.355
lowerback -9.05006 2.49711 4.23224
upperback -12.2711 5.27235 1.42245
thorax -7.78389 3.19173 -0.842208
lowerneck -7.02688 2.33829 -0.956918
upperneck 33.2834 -1.51066 3.94856
head 12.1207 -1.78628 1.16712
rclavicle -6.55989e-015 -2.18663e-014
rhumerus -25.269 33.1881 -16.1406
rradius 31.7871
rwrist 21.7705
rhand -28.829 53.2293
rfingers 7.12502
rthumb -2.1866 23.2607
lclavicle -6.55989e-015 -2.18663e-014
lhumerus -10.5908 -31.391 2.09292
lradius 35.1776
lwrist -44.8796
lhand -34.0448 -1.56606
lfingers 7.12502
lthumb -7.22281 28.2907
rfemur -72.4196 -81.1595 26.9967
rtibia 124.074
rfoot 31.3245 -53.9566
rtoes 59.3778
lfemur -35.8221 -4.37282 -16.4033
ltibia 37.2598
lfoot -39.9984 11.1534
ltoes 51.9242
192
root -1.9323 18.5278 0.312877 -161.262 8.0103 -170.64
lowerback -9.35224 2.32248 5.13343
upperback -12.2906 5.05668 1.68683
thorax -7.62386 3.05361 -1.04683
lowerneck -7.46276 2.26639 -1.07767
upperneck 33.2222 -1.46817 3.84579
head 12.1833 -1.75632 1.15997
rclavicle -1.30204e-014 -5.1684e-015
rhumerus -24.4517 30.0724 -14.3703
rradius 29.26
rwrist 23.0996
rhand -28.5052 53.1157
rfingers 7.12502
rthumb -1.87388 23.1442
lclavicle -1.30204e-014 -5.1684e-015
lhumerus -10.6862 -29.4362 1.63259
lradius 33.4118
lwrist -45.4321
lhand -33.6421 -0.91749
lfingers 7.12502
lthumb -6.83413 28.9522
rfemur -81.8084 -82.8726 36.1727
rtibia 125.679
rfoot 36.2639 -52.4429
rtoes 57.8893
lfemur -36.0681 -4.47361 -15.6423
ltibia 37.0981
lfoot -39.4893 12.2199
ltoes 51.8002
193
root -1.94598 18.5386 0.205166 -160.282 6.47274 -170.514
lowerback -10.3524 1.89066 5.53113
upperback -12.4772 4.53939 1.80998
thorax -7.30178 2.83905 -1.10188
lowerneck -7.83856 2.13494 -1.15609
upperneck 33.2079 -1.53471 3.7061
head 12.2571 -1.78294 1.11651
rclavicle 1.41137e-014 -3.97569e-015
rhumerus -23.8958 26.8157 -12.529
rradius 27.2028
rwrist 24.579
rhand -27.795 52.9668
rfingers 7.12502
rthumb -1.18795 22.9904
lclavicle 1.41137e-014 -3.97569e-015
lhumerus -10.7077 -27.9659 1.09034
lradius 32.1543
lwrist -45.5305
lhand -33.431 -0.781751
lfingers 7.12502
lthumb -6.63031 29.0945
rfemur -105.085 -85.3973 58.4963
rtibia 127.462
rfoot 43.813 -48.4241
rtoes 55.1239
lfemur -36.9881 -3.42389 -15.8162
ltibia 37.0092
lfoot -37.1127 14.3366
ltoes 51.509
194
root -1.97426 18.539 0.0679436 -159.76 6.19602 -170.333
lowerback -11.1531 1.91113 6.03276
upperback -12.6433 4.59577 1.83529
thorax -7.03221 2.88251 -1.30618
lowerneck -7.5274 2.11259 -1.2282
upperneck 33.1854 -1.56772 3.64454
head 12.1829 -1.83102 1.0999
rclavicle -1.28216e-014 -2.94201e-014
rhumerus -23.6448 24.3282 -10.8152
rradius 25.5191
rwrist 25.9481
rhand -27.516 52.4545
rfingers 7.12502
rthumb -0.918422 22.4768
lclavicle -1.28216e-014 -2.94201e-014
lhumerus -10.9026 -26.9433 0.531739
lradius 31.4356
lwrist -45.4577
lhand -33.258 -0.98053
lfingers 7.12502
lthumb -6.46324 28.9009
rfemur -135.376 -86.3024 87.492
rtibia 129.188
rfoot 50.1875 -43.0036
rtoes 52.0342
lfemur -36.9941 -3.40872 -15.8474
ltibia 36.9467
lfoot -37.3019 13.166
ltoes 51.8185
195
root -1.99498 18.534 -0.044412 -159.253 6.0693 -170.544
lowerback -11.6077 1.93763 6.03061
upperback -12.8334 4.6771 1.69734
thorax -6.98451 2.95012 -1.42668
lowerneck -7.73821 2.07386 -1.25605
upperneck 33.3803 -1.65006 3.67269
head 12.3113 -1.86979 1.10438
rclavicle -1.5207e-014 -1.98785e-014
rhumerus -23.4579 21.7489 -9.19537
rradius 23.9781
rwrist 27.275
rhand -27.3947 51.7665
rfingers 7.12502
rthumb -0.801307 21.7882
lclavicle -1.5207e-014 -1.98785e-014
lhumerus -10.5417 -26.0255 -0.129692
lradius 30.7336
lwrist -45.2503
lhand -32.5231 -0.55277
lfingers 7.12502
lthumb -5.75374 29.3491
rfemur -166.691 -85.6503 117.14
rtibia 130.912
rfoot 53.1258 -40.2922
rtoes 51.1778
lfemur -37.1485 -3.62963 -16.2032
ltibia 36.9129
lfoot -37.4188 12.2307
ltoes 52.0932
196
root -2.01235 18.5355 -0.14328 -158.922 5.7029 -170.594
lowerback -11.7474 1.88423 6.10252
upperback -12.9779 4.6626 1.71584
thorax -7.07525 2.96091 -1.4486
lowerneck -7.76637 2.0524 -1.2961
upperneck 33.4705 -1.65919 3.58989
head 12.3543 -1.8912 1.07837
rclavicle 1.96797e-014 1.31198e-014
rhumerus -23.0242 18.9775 -7.40748
rradius 22.6439
rwrist 28.7841
rhand -27.1854 50.946
rfingers 7.12502
rthumb -0.59916 20.9671
lclavicle 1.96797e-014 1.31198e-014
lhumerus -10.0345 -24.7789 -0.574967
lradius 30.2595
lwrist -45.2715
lhand -31.3401 -0.255092
lfingers 7.12502
lthumb -4.61152 29.6747
rfemur -188.981 -84.5784 138.269
rtibia 132.39
rfoot 52.7537 -42.1306
rtoes 53.3549
lfemur -37.1878 -3.8407 -16.311
ltibia 36.8433
lfoot -37.1428 12.4123
ltoes 52.0763
197
root -2.02835 18.5446 -0.240128 -158.593 5.06198 -170.181
lowerback -12.0205 1.80758 6.68168
upperback -13.0144 4.57459 1.92627
thorax -6.97562 2.91143 -1.53711
lowerneck -7.57759 2.01719 -1.48008
upperneck 33.3713 -1.64322 3.52279
head 12.2716 -1.91471 1.08833
rclavicle 7.30534e-015 1.31198e-014
rhumerus -22.316 16.2281 -5.57915
rradius 21.4424
rwrist 30.3511
rhand -26.788 50.0146
rfingers 7.12502
rthumb -0.215327 20.035
lclavicle 7.30534e-015 1.31198e-014
lhumerus -9.81024 -23.8296 -0.987039
lradius 30.0696
lwrist -45.1373
lhand -31.0124 -0.253027
lfingers 7.12502
lthumb -4.29509 29.6834
rfemur -202.346 -83.2534 151.421
rtibia 133.558
rfoot 52.641 -42.9464
rtoes 53.853
lfemur -37.2303 -3.78272 -15.9086
ltibia 36.7476
lfoot -36.3024 13.3601
ltoes 51.7786
198
root -2.0408 18.5483 -0.329769 -158.276 4.70192 -170.153
lowerback -12.1587 1.72168 6.70197
upperback -12.6312 4.34087 2.1493
thorax -6.49418 2.78939 -1.29758
lowerneck -9.51529 1.88016 -1.90265
upperneck 33.8601 -1.50449 3.2801
head 12.882 -1.85073 1.096
rclavicle -1.64991e-014 1.07344e-014
rhumerus -21.0516 12.8208 -3.81906
rradius 20.3314
rwrist 31.8834
rhand -26.5102 48.8281
rfingers 7.12502
rthumb 0.0530192 18.8483
lclavicle -1.64991e-014 1.07344e-014
lhumerus -9.69826 -21.6852 -1.28986
lradius 29.2918
lwrist -45.6556
lhand -31.6008 -0.913793
lfingers 7.12502
lthumb -4.86332 29.0104
rfemur -207.221 -81.6917 155.518
rtibia 134.824
rfoot 54.6132 -39.4549
rtoes 51.141
lfemur -37.2554 -3.75923 -15.9427
ltibia 36.6138
lfoot -35.6332 13.8816
ltoes 51.5884
199
root -2.05022 18.5475 -0.407643 -158.084 4.64456 -170.29
lowerback -12.0056 1.75227 6.54296
upperback -12.835 4.47812 2.14912
thorax -6.80844 2.88219 -1.22345
lowerneck -9.31106 1.84642 -2.091
upperneck 34.2389 -1.67263 3.32327
head 13.0073 -1.99132 1.11576
rclavicle -2.18663e-015 -5.56597e-015
rhumerus -20.5597 10.8613 -2.27548
rradius 19.5922
rwrist 33.273
rhand -25.9562 47.1872
rfingers 7.12502
rthumb 0.588024 17.2083
lclavicle -2.18663e-015 -5.56597e-015
lhumerus -8.81878 -20.7428 -1.78787
lradius 28.6942
lwrist -46.348
lhand -32.0113 -1.14509
lfingers 7.12502
lthumb -5.25963 28.7696
rfemur -208.638 -80.374 155.888
rtibia 136.075
rfoot 54.8732 -37.3104
rtoes 49.2033
lfemur -37.1433 -3.60685 -16.214
ltibia 36.4834
lfoot -35.3397 13.9707
ltoes 51.4469
200
root -2.05984 18.5449 -0.483003 -158.125 4.59203 -170.409
lowerback -11.6797 1.78677 6.38873
upperback -12.837 4.55108 2.17482
thorax -6.99162 2.91996 -1.12869
lowerneck -9.91334 2.02708 -2.3622
upperneck 35.316 -1.69907 3.69056
head 13.6167 -2.05722 1.29292
rclavicle -2.94201e-014 -2.18663e-014
rhumerus -19.7171 8.85002 -0.879247
rradius 18.7569
rwrist 34.6494
rhand -25.4975 45.4175
rfingers 7.12502
rthumb 1.03103 15.4403
lclavicle -2.94201e-014 -2.18663e-014
lhumerus -8.13648 -20.0594 -2.31874
lradius 28.8613
lwrist -46.6128
lhand -32.1283 -0.675945
lfingers 7.12502
lthumb -5.37262 29.2359
rfemur -212.102 -79.6288 158.434
rtibia 137.03
rfoot 53.005 -39.1741
rtoes 50.9966
lfemur -36.7785 -3.15757 -16.5779
ltibia 36.3759
lfoot -34.679 14.4017
ltoes 51.2158
